<svg width="339" height="36" viewBox="0 0 339 36" fill="none" xmlns="http://www.w3.org/2000/svg">
<g clip-path="url(#clip0)">
<path d="M20.4917 0.0236816H36.3461V7.01584H19.4624C16.415 7.01584 14.1042 7.57324 12.5301 8.68805C10.3865 9.80462 8.74605 11.9595 7.6088 15.1527C7.37888 16.0687 7.25252 17.0073 7.23207 17.9511C7.23207 20.6626 8.25348 23.2122 10.2963 25.6001C11.6334 26.8819 12.8891 27.7303 14.0635 28.1453C15.3511 28.7238 17.1189 29.0131 19.3669 29.0131H36.3461V36.0026H20.1628C16.0259 36.0026 12.9617 35.5032 10.9701 34.5044C6.51841 32.5702 3.32951 29.4052 1.40344 25.0092C0.463284 22.7909 -0.0141669 20.4058 1.14218e-06 17.9986C1.14218e-06 12.6426 2.13478 8.07086 6.40434 4.28333C9.19883 2.17505 11.7262 0.930122 13.9866 0.548555C15.1433 0.200398 17.3117 0.02544 20.4917 0.0236816ZM17.4275 14.554H36.3461V21.4696H17.4275V14.554Z" fill="white"/>
<path d="M60.0294 16.6852V21.8917H41.6707V16.6852H60.0294Z" fill="white"/>
<path d="M61.5708 0.0500488H81.7123C89.0099 0.0500488 94.0744 3.22039 96.9061 9.56108C97.6009 11.3786 97.95 13.3086 97.9354 15.2529C97.9354 19.473 96.2782 23.1656 92.9637 26.3307C90.9209 28.1277 88.4174 29.3427 85.4531 29.9758C84.3054 30.1365 83.1472 30.2115 81.9883 30.2L68.8294 30.3503V35.992H61.5204V23.2421H81.4179C84.0143 23.2421 85.9147 22.7594 87.1192 21.7941C88.6597 20.8129 89.7651 19.2304 90.4354 17.0465C90.5517 16.546 90.6183 16.0354 90.6344 15.522V14.7703C90.6344 12.8888 89.8226 11.0583 88.1989 9.27886C86.5081 7.80007 84.6333 7.05979 82.5746 7.05804H61.5708V0.0500488Z" fill="white"/>
<path d="M101.697 0.0500488H108.98V17.0517C108.98 21.8116 110.813 25.273 114.479 27.4358C116.087 28.4908 118.222 29.0183 120.884 29.0183H138.11V36.0079H121.131C116.532 36.0079 112.857 35.0504 110.105 33.1355C109.339 32.7487 108.187 31.8141 106.65 30.3318C104.659 28.1022 103.311 25.8559 102.607 23.5929C102.006 21.8785 101.704 19.4229 101.703 16.2262L101.697 0.0500488Z" fill="white"/>
<path d="M161.568 0H178.281V36H171.031V7.0159L164.552 7.03964H162.995C159.378 7.03964 157.369 7.18998 156.967 7.49066C154.776 8.09167 152.848 9.39994 151.486 11.2096C149.878 13.4955 149.075 15.7673 149.075 18.0251C149.075 20.8209 150.163 23.3925 152.34 25.7399C153.798 27.122 155.054 27.9537 156.108 28.235C157.169 28.7625 158.985 29.0263 161.557 29.0263H166.598V35.9921H160.559C156.072 35.9921 152.28 34.8184 149.183 32.471C146.941 30.7126 145.443 29.1151 144.689 27.6785C142.813 24.7174 141.875 21.6886 141.877 18.5921V17.5371C141.877 13.2115 143.509 9.242 146.774 5.62854C148.748 3.72599 150.363 2.52414 151.619 2.02301C152.81 1.41196 154.065 0.934275 155.362 0.598725C156.784 0.199575 158.853 0 161.568 0Z" fill="white"/>
<path d="M196.696 35.9999V30.1076C193.779 29.3322 191.053 27.9724 188.684 26.1117C186.692 24.3323 185.395 22.8508 184.792 21.6675C183.954 20.33 183.304 18.8854 182.858 17.3735C182.327 15.7101 182.062 13.4462 182.062 10.5818V0.0500488H189.344V10.9089C189.344 14.0739 189.964 16.5128 191.202 18.2254C191.451 18.7741 192.254 19.648 193.611 20.8472C195.485 22.3803 197.838 23.2185 200.266 23.2185C202.693 23.2185 205.046 22.3803 206.921 20.8472C208.277 19.6462 209.081 18.7723 209.332 18.2254C210.57 16.511 211.189 14.0722 211.189 10.9089V0.0500488H218.472V10.5844C218.472 13.4488 218.206 15.7127 217.676 17.3762C217.246 18.8938 216.594 20.3406 215.742 21.6701C215.14 22.8517 213.852 24.3331 211.876 26.1144C209.496 27.9705 206.763 29.3288 203.84 30.1076V35.9999H196.696Z" fill="white"/>
<path d="M242.723 0.0236816H258.569V7.01584H241.688C238.642 7.01584 236.333 7.57324 234.758 8.68805C232.615 9.80462 230.974 11.9595 229.837 15.1527C229.607 16.0687 229.481 17.0073 229.46 17.9511C229.46 20.6626 230.481 23.2122 232.522 25.6001C233.861 26.8819 235.117 27.7303 236.289 28.1453C237.579 28.7273 239.347 29.0192 241.595 29.021H258.574V36.0105H242.391C238.258 36.0105 235.194 35.5111 233.201 34.5124C228.748 32.5782 225.559 29.4131 223.634 25.0172C222.691 22.7977 222.213 20.4105 222.228 18.0013C222.228 12.6453 224.362 8.0735 228.63 4.28597C231.43 2.17593 233.96 0.930122 236.22 0.548555C237.375 0.200398 239.543 0.02544 242.723 0.0236816ZM239.661 14.554H258.569V21.4696H239.661V14.554Z" fill="white"/>
<path d="M262.411 0.0236816H285.664C289.775 0.0236816 292.989 1.24663 295.308 3.69252C296.206 4.47415 296.94 5.42423 297.467 6.48833C298.328 8.11697 298.793 9.92381 298.823 11.7634V12.7868C298.823 15.4244 297.673 17.996 295.374 20.5017C293.901 21.9084 292.562 22.8069 291.358 23.1972C294.403 26.4291 295.926 30.6984 295.926 36.0052H288.62V35.4566C288.62 31.5284 287.021 28.4073 283.823 26.0933C281.998 24.8114 279.61 24.1705 276.66 24.1705H262.411V17.2258H286.115C288.71 17.2258 290.468 15.9528 291.389 13.4066C291.49 12.8791 291.556 12.4571 291.591 12.109C291.591 10.6935 290.997 9.41162 289.808 8.2634C288.891 7.50216 287.737 7.07917 286.542 7.06595C286.542 7.00002 286.192 6.96573 285.481 6.96573H262.4L262.411 0.0236816Z" fill="white"/>
<path d="M314.091 0.050054H338.472V7.43521H313.863C311.94 7.43521 310.761 8.37506 310.324 10.2548V10.7823C310.324 11.8971 310.952 12.829 312.207 13.5781C312.591 13.7279 313 13.804 313.412 13.8023H325.788C328.972 13.8023 331.131 14.1267 332.267 14.7755C335.081 16.0257 337.026 17.9318 338.103 20.4937C338.686 21.9654 338.993 23.5306 339.008 25.1121C339.008 28.7062 337.317 31.735 333.935 34.1985C332.862 34.8605 331.694 35.3576 330.471 35.6729C329.5 35.8892 327.884 35.9973 325.624 35.9973H302.622L302.596 28.6121H327.306C329.382 28.6121 330.709 27.5967 331.285 25.5658L331.336 24.8932C331.336 23.4601 330.628 22.3611 329.213 21.5962C328.61 21.3096 327.947 21.1729 327.279 21.198H313.393C309.76 21.198 306.731 19.6154 304.304 16.4504C303.291 14.8575 302.74 13.0174 302.712 11.1331V10.1572C302.712 6.46459 304.521 3.54394 308.138 1.39521C309.629 0.49668 311.613 0.0482956 314.091 0.050054Z" fill="white"/>
</g>
<defs>
<clipPath id="clip0">
<rect width="339" height="36" fill="white"/>
</clipPath>
</defs>
</svg>
